<mxfile host="app.diagrams.net" modified="2024-05-13T04:00:24.623Z" agent="Mozilla/5.0 (Windows NT 10.0; Win64; x64) AppleWebKit/537.36 (KHTML, like Gecko) Chrome/124.0.0.0 Safari/537.36" etag="p43hZhpKKKfiEDUGR92m" version="24.4.0" type="github">
  <diagram id="uH52avoRro6UfrdI5dQO" name="EXERCISE-16">
    <mxGraphModel dx="1120" dy="434" grid="1" gridSize="10" guides="1" tooltips="1" connect="1" arrows="1" fold="1" page="1" pageScale="1" pageWidth="827" pageHeight="1169" math="0" shadow="0">
      <root>
        <mxCell id="0" />
        <mxCell id="1" parent="0" />
        <mxCell id="BQkQv98dp7C7x2xebXow-1" value="" style="edgeStyle=orthogonalEdgeStyle;rounded=0;orthogonalLoop=1;jettySize=auto;html=1;" parent="1" target="BQkQv98dp7C7x2xebXow-3" edge="1">
          <mxGeometry relative="1" as="geometry">
            <mxPoint x="340.5" y="110" as="sourcePoint" />
          </mxGeometry>
        </mxCell>
        <mxCell id="BQkQv98dp7C7x2xebXow-2" value="" style="edgeStyle=orthogonalEdgeStyle;rounded=0;orthogonalLoop=1;jettySize=auto;html=1;" parent="1" source="BQkQv98dp7C7x2xebXow-3" target="BQkQv98dp7C7x2xebXow-88" edge="1">
          <mxGeometry relative="1" as="geometry" />
        </mxCell>
        <mxCell id="BQkQv98dp7C7x2xebXow-3" value="&lt;div&gt;debut&lt;/div&gt;" style="shape=parallelogram;perimeter=parallelogramPerimeter;whiteSpace=wrap;html=1;fixedSize=1;" parent="1" vertex="1">
          <mxGeometry x="303.5" y="130" width="72.5" height="20" as="geometry" />
        </mxCell>
        <mxCell id="BQkQv98dp7C7x2xebXow-4" value="" style="edgeStyle=orthogonalEdgeStyle;rounded=0;orthogonalLoop=1;jettySize=auto;html=1;" parent="1" source="BQkQv98dp7C7x2xebXow-5" target="BQkQv98dp7C7x2xebXow-8" edge="1">
          <mxGeometry relative="1" as="geometry" />
        </mxCell>
        <mxCell id="BQkQv98dp7C7x2xebXow-5" value="&lt;div&gt;hours1, hours2, hours3, tarifa1, tarifa2, tarifa3&lt;/div&gt;" style="whiteSpace=wrap;html=1;" parent="1" vertex="1">
          <mxGeometry x="269.25" y="220" width="140" height="60" as="geometry" />
        </mxCell>
        <mxCell id="BQkQv98dp7C7x2xebXow-6" value="" style="edgeStyle=orthogonalEdgeStyle;rounded=0;orthogonalLoop=1;jettySize=auto;html=1;" parent="1" source="BQkQv98dp7C7x2xebXow-8" target="BQkQv98dp7C7x2xebXow-10" edge="1">
          <mxGeometry relative="1" as="geometry" />
        </mxCell>
        <mxCell id="BQkQv98dp7C7x2xebXow-7" value="" style="edgeStyle=orthogonalEdgeStyle;rounded=0;orthogonalLoop=1;jettySize=auto;html=1;" parent="1" source="BQkQv98dp7C7x2xebXow-8" target="BQkQv98dp7C7x2xebXow-14" edge="1">
          <mxGeometry relative="1" as="geometry" />
        </mxCell>
        <mxCell id="BQkQv98dp7C7x2xebXow-8" value="debut==fin" style="rhombus;whiteSpace=wrap;html=1;" parent="1" vertex="1">
          <mxGeometry x="299.25" y="310" width="80" height="80" as="geometry" />
        </mxCell>
        <mxCell id="BQkQv98dp7C7x2xebXow-9" value="" style="edgeStyle=orthogonalEdgeStyle;rounded=0;orthogonalLoop=1;jettySize=auto;html=1;" parent="1" source="BQkQv98dp7C7x2xebXow-10" target="BQkQv98dp7C7x2xebXow-91" edge="1">
          <mxGeometry relative="1" as="geometry" />
        </mxCell>
        <mxCell id="BQkQv98dp7C7x2xebXow-10" value="&lt;div&gt;Que extraño, no has&lt;/div&gt;&lt;div&gt;&amp;nbsp;alquilado tu bicicleta por&lt;/div&gt;&lt;div&gt;&amp;nbsp;mucho tiempo!&lt;br&gt;&lt;/div&gt;" style="shape=parallelogram;perimeter=parallelogramPerimeter;whiteSpace=wrap;html=1;fixedSize=1;" parent="1" vertex="1">
          <mxGeometry x="420.5" y="320" width="180" height="60" as="geometry" />
        </mxCell>
        <mxCell id="BQkQv98dp7C7x2xebXow-11" value="SI" style="text;html=1;align=center;verticalAlign=middle;resizable=0;points=[];autosize=1;strokeColor=none;fillColor=none;" parent="1" vertex="1">
          <mxGeometry x="380.5" y="320" width="30" height="30" as="geometry" />
        </mxCell>
        <mxCell id="BQkQv98dp7C7x2xebXow-12" value="" style="edgeStyle=orthogonalEdgeStyle;rounded=0;orthogonalLoop=1;jettySize=auto;html=1;" parent="1" source="BQkQv98dp7C7x2xebXow-14" target="BQkQv98dp7C7x2xebXow-17" edge="1">
          <mxGeometry relative="1" as="geometry" />
        </mxCell>
        <mxCell id="BQkQv98dp7C7x2xebXow-13" value="" style="edgeStyle=orthogonalEdgeStyle;rounded=0;orthogonalLoop=1;jettySize=auto;html=1;" parent="1" source="BQkQv98dp7C7x2xebXow-14" target="BQkQv98dp7C7x2xebXow-22" edge="1">
          <mxGeometry relative="1" as="geometry" />
        </mxCell>
        <mxCell id="BQkQv98dp7C7x2xebXow-14" value="debut &amp;gt; 24&amp;nbsp;&lt;div&gt;or fin &amp;gt; 24&amp;nbsp;&lt;div&gt;or debut &amp;lt; 0 or fin &amp;lt; 0&lt;/div&gt;&lt;/div&gt;" style="rhombus;whiteSpace=wrap;html=1;" parent="1" vertex="1">
          <mxGeometry x="243" y="410" width="195" height="130" as="geometry" />
        </mxCell>
        <mxCell id="BQkQv98dp7C7x2xebXow-15" value="NO" style="text;html=1;align=center;verticalAlign=middle;resizable=0;points=[];autosize=1;strokeColor=none;fillColor=none;" parent="1" vertex="1">
          <mxGeometry x="340.5" y="378" width="40" height="30" as="geometry" />
        </mxCell>
        <mxCell id="BQkQv98dp7C7x2xebXow-16" value="" style="edgeStyle=orthogonalEdgeStyle;rounded=0;orthogonalLoop=1;jettySize=auto;html=1;" parent="1" source="BQkQv98dp7C7x2xebXow-17" target="BQkQv98dp7C7x2xebXow-92" edge="1">
          <mxGeometry relative="1" as="geometry" />
        </mxCell>
        <mxCell id="BQkQv98dp7C7x2xebXow-17" value="&lt;div&gt;Las horas deben estar&amp;nbsp;&lt;/div&gt;&lt;div&gt;entre 0 y 24!&lt;br&gt;&lt;/div&gt;" style="shape=parallelogram;perimeter=parallelogramPerimeter;whiteSpace=wrap;html=1;fixedSize=1;" parent="1" vertex="1">
          <mxGeometry x="450.5" y="445" width="160" height="60" as="geometry" />
        </mxCell>
        <mxCell id="BQkQv98dp7C7x2xebXow-18" value="SI" style="text;html=1;align=center;verticalAlign=middle;resizable=0;points=[];autosize=1;strokeColor=none;fillColor=none;" parent="1" vertex="1">
          <mxGeometry x="425.5" y="438" width="30" height="30" as="geometry" />
        </mxCell>
        <mxCell id="BQkQv98dp7C7x2xebXow-19" value="NO" style="text;html=1;align=center;verticalAlign=middle;resizable=0;points=[];autosize=1;strokeColor=none;fillColor=none;" parent="1" vertex="1">
          <mxGeometry x="350.5" y="528" width="40" height="30" as="geometry" />
        </mxCell>
        <mxCell id="BQkQv98dp7C7x2xebXow-20" value="" style="edgeStyle=orthogonalEdgeStyle;rounded=0;orthogonalLoop=1;jettySize=auto;html=1;" parent="1" source="BQkQv98dp7C7x2xebXow-22" target="BQkQv98dp7C7x2xebXow-24" edge="1">
          <mxGeometry relative="1" as="geometry" />
        </mxCell>
        <mxCell id="BQkQv98dp7C7x2xebXow-21" value="" style="edgeStyle=orthogonalEdgeStyle;rounded=0;orthogonalLoop=1;jettySize=auto;html=1;" parent="1" source="BQkQv98dp7C7x2xebXow-22" edge="1">
          <mxGeometry relative="1" as="geometry">
            <mxPoint x="340.5" y="700" as="targetPoint" />
          </mxGeometry>
        </mxCell>
        <mxCell id="BQkQv98dp7C7x2xebXow-22" value="debut &amp;gt; fin" style="rhombus;whiteSpace=wrap;html=1;" parent="1" vertex="1">
          <mxGeometry x="271.75" y="590" width="137.5" height="80" as="geometry" />
        </mxCell>
        <mxCell id="BQkQv98dp7C7x2xebXow-23" value="" style="edgeStyle=orthogonalEdgeStyle;rounded=0;orthogonalLoop=1;jettySize=auto;html=1;" parent="1" source="BQkQv98dp7C7x2xebXow-24" target="BQkQv98dp7C7x2xebXow-93" edge="1">
          <mxGeometry relative="1" as="geometry" />
        </mxCell>
        <mxCell id="BQkQv98dp7C7x2xebXow-24" value="&lt;div&gt;Que extraño, el inicio del&lt;/div&gt;&lt;div&gt;&amp;nbsp;alquiler es después del&lt;/div&gt;&lt;div&gt;&amp;nbsp;final&lt;br&gt;&lt;/div&gt;" style="shape=parallelogram;perimeter=parallelogramPerimeter;whiteSpace=wrap;html=1;fixedSize=1;" parent="1" vertex="1">
          <mxGeometry x="428" y="600" width="172.5" height="60" as="geometry" />
        </mxCell>
        <mxCell id="BQkQv98dp7C7x2xebXow-25" value="SI" style="text;html=1;align=center;verticalAlign=middle;resizable=0;points=[];autosize=1;strokeColor=none;fillColor=none;" parent="1" vertex="1">
          <mxGeometry x="395.5" y="598" width="30" height="30" as="geometry" />
        </mxCell>
        <mxCell id="BQkQv98dp7C7x2xebXow-26" value="" style="edgeStyle=orthogonalEdgeStyle;rounded=0;orthogonalLoop=1;jettySize=auto;html=1;" parent="1" target="BQkQv98dp7C7x2xebXow-31" edge="1">
          <mxGeometry relative="1" as="geometry">
            <mxPoint x="340.5" y="810" as="sourcePoint" />
          </mxGeometry>
        </mxCell>
        <mxCell id="BQkQv98dp7C7x2xebXow-27" value="NO" style="text;html=1;align=center;verticalAlign=middle;resizable=0;points=[];autosize=1;strokeColor=none;fillColor=none;" parent="1" vertex="1">
          <mxGeometry x="420.5" y="718" width="40" height="30" as="geometry" />
        </mxCell>
        <mxCell id="BQkQv98dp7C7x2xebXow-28" value="NO" style="text;html=1;align=center;verticalAlign=middle;resizable=0;points=[];autosize=1;strokeColor=none;fillColor=none;" parent="1" vertex="1">
          <mxGeometry x="340.5" y="668" width="40" height="30" as="geometry" />
        </mxCell>
        <mxCell id="BQkQv98dp7C7x2xebXow-29" value="" style="edgeStyle=orthogonalEdgeStyle;rounded=0;orthogonalLoop=1;jettySize=auto;html=1;" parent="1" source="BQkQv98dp7C7x2xebXow-31" target="BQkQv98dp7C7x2xebXow-34" edge="1">
          <mxGeometry relative="1" as="geometry" />
        </mxCell>
        <mxCell id="BQkQv98dp7C7x2xebXow-30" value="" style="edgeStyle=orthogonalEdgeStyle;rounded=0;orthogonalLoop=1;jettySize=auto;html=1;" parent="1" source="BQkQv98dp7C7x2xebXow-31" target="BQkQv98dp7C7x2xebXow-41" edge="1">
          <mxGeometry relative="1" as="geometry" />
        </mxCell>
        <mxCell id="BQkQv98dp7C7x2xebXow-31" value="debut &amp;lt;= 7 and fin &amp;lt;= 7" style="rhombus;whiteSpace=wrap;html=1;" parent="1" vertex="1">
          <mxGeometry x="265.5" y="850" width="150" height="90" as="geometry" />
        </mxCell>
        <mxCell id="BQkQv98dp7C7x2xebXow-32" value="SI" style="text;html=1;align=center;verticalAlign=middle;resizable=0;points=[];autosize=1;strokeColor=none;fillColor=none;" parent="1" vertex="1">
          <mxGeometry x="355.5" y="808" width="30" height="30" as="geometry" />
        </mxCell>
        <mxCell id="BQkQv98dp7C7x2xebXow-33" value="" style="edgeStyle=orthogonalEdgeStyle;rounded=0;orthogonalLoop=1;jettySize=auto;html=1;" parent="1" source="BQkQv98dp7C7x2xebXow-34" target="BQkQv98dp7C7x2xebXow-37" edge="1">
          <mxGeometry relative="1" as="geometry" />
        </mxCell>
        <mxCell id="BQkQv98dp7C7x2xebXow-34" value="hours1 = fin-debut&lt;div&gt;tarifa1 = hours1 *1&lt;/div&gt;" style="whiteSpace=wrap;html=1;" parent="1" vertex="1">
          <mxGeometry x="450.5" y="865" width="120" height="60" as="geometry" />
        </mxCell>
        <mxCell id="BQkQv98dp7C7x2xebXow-35" value="SI" style="text;html=1;align=center;verticalAlign=middle;resizable=0;points=[];autosize=1;strokeColor=none;fillColor=none;" parent="1" vertex="1">
          <mxGeometry x="405.5" y="848" width="30" height="30" as="geometry" />
        </mxCell>
        <mxCell id="BQkQv98dp7C7x2xebXow-36" value="" style="edgeStyle=orthogonalEdgeStyle;rounded=0;orthogonalLoop=1;jettySize=auto;html=1;" parent="1" source="BQkQv98dp7C7x2xebXow-37" target="BQkQv98dp7C7x2xebXow-95" edge="1">
          <mxGeometry relative="1" as="geometry" />
        </mxCell>
        <mxCell id="BQkQv98dp7C7x2xebXow-37" value="&lt;div&gt;&lt;span style=&quot;background-color: initial;&quot;&gt;Haz alquilado una bicicleta por&lt;/span&gt;&lt;br&gt;&lt;/div&gt;&lt;div&gt;[hours1] hora(s) con el tarifario de 1 boliviano(s)&lt;br&gt;&lt;/div&gt;&lt;div&gt;El monto total a pagar es de [tarifa1] boliviano(s).&lt;br&gt;&lt;/div&gt;" style="shape=parallelogram;perimeter=parallelogramPerimeter;whiteSpace=wrap;html=1;fixedSize=1;" parent="1" vertex="1">
          <mxGeometry x="610.5" y="865" width="340" height="60" as="geometry" />
        </mxCell>
        <mxCell id="BQkQv98dp7C7x2xebXow-38" value="NO" style="text;html=1;align=center;verticalAlign=middle;resizable=0;points=[];autosize=1;strokeColor=none;fillColor=none;" parent="1" vertex="1">
          <mxGeometry x="360.5" y="928" width="40" height="30" as="geometry" />
        </mxCell>
        <mxCell id="BQkQv98dp7C7x2xebXow-39" value="" style="edgeStyle=orthogonalEdgeStyle;rounded=0;orthogonalLoop=1;jettySize=auto;html=1;" parent="1" source="BQkQv98dp7C7x2xebXow-41" target="BQkQv98dp7C7x2xebXow-43" edge="1">
          <mxGeometry relative="1" as="geometry" />
        </mxCell>
        <mxCell id="BQkQv98dp7C7x2xebXow-40" value="" style="edgeStyle=orthogonalEdgeStyle;rounded=0;orthogonalLoop=1;jettySize=auto;html=1;" parent="1" source="BQkQv98dp7C7x2xebXow-41" target="BQkQv98dp7C7x2xebXow-50" edge="1">
          <mxGeometry relative="1" as="geometry" />
        </mxCell>
        <mxCell id="BQkQv98dp7C7x2xebXow-41" value="debut &amp;lt;= 17 and&amp;nbsp;&lt;div&gt;debut &amp;gt;= 7 and fin &amp;gt;= 7 and&lt;/div&gt;&lt;div&gt;&amp;nbsp;fin &amp;lt;= 17&lt;/div&gt;" style="rhombus;whiteSpace=wrap;html=1;" parent="1" vertex="1">
          <mxGeometry x="249.5" y="990" width="182" height="100" as="geometry" />
        </mxCell>
        <mxCell id="BQkQv98dp7C7x2xebXow-42" value="" style="edgeStyle=orthogonalEdgeStyle;rounded=0;orthogonalLoop=1;jettySize=auto;html=1;" parent="1" source="BQkQv98dp7C7x2xebXow-43" target="BQkQv98dp7C7x2xebXow-46" edge="1">
          <mxGeometry relative="1" as="geometry" />
        </mxCell>
        <mxCell id="BQkQv98dp7C7x2xebXow-43" value="&lt;div&gt;hours1 = fin - debut&lt;/div&gt;&lt;div&gt;&amp;nbsp;tarifa1 = hours1 * 2&lt;/div&gt;" style="whiteSpace=wrap;html=1;" parent="1" vertex="1">
          <mxGeometry x="460.5" y="1010" width="140" height="60" as="geometry" />
        </mxCell>
        <mxCell id="BQkQv98dp7C7x2xebXow-44" value="SI" style="text;html=1;align=center;verticalAlign=middle;resizable=0;points=[];autosize=1;strokeColor=none;fillColor=none;" parent="1" vertex="1">
          <mxGeometry x="415.5" y="1008" width="30" height="30" as="geometry" />
        </mxCell>
        <mxCell id="BQkQv98dp7C7x2xebXow-45" value="" style="edgeStyle=orthogonalEdgeStyle;rounded=0;orthogonalLoop=1;jettySize=auto;html=1;" parent="1" source="BQkQv98dp7C7x2xebXow-46" target="BQkQv98dp7C7x2xebXow-96" edge="1">
          <mxGeometry relative="1" as="geometry" />
        </mxCell>
        <mxCell id="BQkQv98dp7C7x2xebXow-46" value="&lt;div&gt;&lt;span style=&quot;background-color: initial;&quot;&gt;Haz alquilado una bicicleta por&lt;/span&gt;&lt;div&gt;&lt;div&gt;[hours1] hora(s) con el tarifario de 2 boliviano(s)&lt;/div&gt;&lt;div&gt;&lt;span style=&quot;background-color: initial;&quot;&gt;El monto total a pagar es de [tarifa1] boliviano(s).&lt;/span&gt;&lt;/div&gt;&lt;/div&gt;&lt;/div&gt;" style="shape=parallelogram;perimeter=parallelogramPerimeter;whiteSpace=wrap;html=1;fixedSize=1;" parent="1" vertex="1">
          <mxGeometry x="620.5" y="1010" width="340" height="60" as="geometry" />
        </mxCell>
        <mxCell id="BQkQv98dp7C7x2xebXow-47" value="NO" style="text;html=1;align=center;verticalAlign=middle;resizable=0;points=[];autosize=1;strokeColor=none;fillColor=none;" parent="1" vertex="1">
          <mxGeometry x="350.5" y="1090" width="40" height="30" as="geometry" />
        </mxCell>
        <mxCell id="BQkQv98dp7C7x2xebXow-48" value="" style="edgeStyle=orthogonalEdgeStyle;rounded=0;orthogonalLoop=1;jettySize=auto;html=1;" parent="1" source="BQkQv98dp7C7x2xebXow-50" target="BQkQv98dp7C7x2xebXow-52" edge="1">
          <mxGeometry relative="1" as="geometry" />
        </mxCell>
        <mxCell id="BQkQv98dp7C7x2xebXow-49" value="" style="edgeStyle=orthogonalEdgeStyle;rounded=0;orthogonalLoop=1;jettySize=auto;html=1;" parent="1" source="BQkQv98dp7C7x2xebXow-50" target="BQkQv98dp7C7x2xebXow-58" edge="1">
          <mxGeometry relative="1" as="geometry" />
        </mxCell>
        <mxCell id="BQkQv98dp7C7x2xebXow-50" value="debut &amp;lt;= 24 and&amp;nbsp;&lt;div&gt;debut &amp;gt;= 17 and fin &amp;gt;= 17&amp;nbsp;&lt;/div&gt;&lt;div&gt;and fin &amp;lt;= 24&lt;/div&gt;" style="rhombus;whiteSpace=wrap;html=1;" parent="1" vertex="1">
          <mxGeometry x="254.5" y="1149" width="171" height="110" as="geometry" />
        </mxCell>
        <mxCell id="BQkQv98dp7C7x2xebXow-51" value="" style="edgeStyle=orthogonalEdgeStyle;rounded=0;orthogonalLoop=1;jettySize=auto;html=1;" parent="1" source="BQkQv98dp7C7x2xebXow-52" target="BQkQv98dp7C7x2xebXow-55" edge="1">
          <mxGeometry relative="1" as="geometry" />
        </mxCell>
        <mxCell id="BQkQv98dp7C7x2xebXow-52" value="&lt;div&gt;hours1 = fin - debut&lt;/div&gt;&lt;div&gt;&lt;span style=&quot;background-color: initial;&quot;&gt;tarifa1 = hours1 * 1&lt;/span&gt;&lt;/div&gt;" style="whiteSpace=wrap;html=1;" parent="1" vertex="1">
          <mxGeometry x="460.5" y="1174" width="126.25" height="60" as="geometry" />
        </mxCell>
        <mxCell id="BQkQv98dp7C7x2xebXow-53" value="SI" style="text;html=1;align=center;verticalAlign=middle;resizable=0;points=[];autosize=1;strokeColor=none;fillColor=none;" parent="1" vertex="1">
          <mxGeometry x="425.5" y="1168" width="30" height="30" as="geometry" />
        </mxCell>
        <mxCell id="BQkQv98dp7C7x2xebXow-54" value="" style="edgeStyle=orthogonalEdgeStyle;rounded=0;orthogonalLoop=1;jettySize=auto;html=1;" parent="1" source="BQkQv98dp7C7x2xebXow-55" target="BQkQv98dp7C7x2xebXow-97" edge="1">
          <mxGeometry relative="1" as="geometry" />
        </mxCell>
        <mxCell id="BQkQv98dp7C7x2xebXow-55" value="&lt;div&gt;&lt;div&gt;Haz alquilado una bicicleta por&lt;/div&gt;&lt;div&gt;&lt;span style=&quot;background-color: initial;&quot;&gt;[hours1] hora(s) con el tarifario de 1 boliviano(s)&lt;/span&gt;&lt;/div&gt;&lt;div&gt;&lt;span style=&quot;background-color: initial;&quot;&gt;El monto total a pagar es de [tarifa1]boliviano(s).&amp;nbsp;&lt;/span&gt;&lt;/div&gt;&lt;/div&gt;" style="shape=parallelogram;perimeter=parallelogramPerimeter;whiteSpace=wrap;html=1;fixedSize=1;" parent="1" vertex="1">
          <mxGeometry x="610.51" y="1174" width="329.99" height="60" as="geometry" />
        </mxCell>
        <mxCell id="BQkQv98dp7C7x2xebXow-56" value="" style="edgeStyle=orthogonalEdgeStyle;rounded=0;orthogonalLoop=1;jettySize=auto;html=1;" parent="1" source="BQkQv98dp7C7x2xebXow-58" target="BQkQv98dp7C7x2xebXow-62" edge="1">
          <mxGeometry relative="1" as="geometry" />
        </mxCell>
        <mxCell id="BQkQv98dp7C7x2xebXow-57" value="" style="edgeStyle=orthogonalEdgeStyle;rounded=0;orthogonalLoop=1;jettySize=auto;html=1;" parent="1" source="BQkQv98dp7C7x2xebXow-58" target="BQkQv98dp7C7x2xebXow-67" edge="1">
          <mxGeometry relative="1" as="geometry" />
        </mxCell>
        <mxCell id="BQkQv98dp7C7x2xebXow-58" value="debut &amp;lt;= 7 and fin &amp;gt;= 7&amp;nbsp;&lt;div&gt;and fin &amp;lt;= 17&lt;br&gt;&lt;/div&gt;" style="rhombus;whiteSpace=wrap;html=1;" parent="1" vertex="1">
          <mxGeometry x="248" y="1310" width="183.5" height="101" as="geometry" />
        </mxCell>
        <mxCell id="BQkQv98dp7C7x2xebXow-59" value="NO" style="text;html=1;align=center;verticalAlign=middle;resizable=0;points=[];autosize=1;strokeColor=none;fillColor=none;" parent="1" vertex="1">
          <mxGeometry x="350.5" y="1268" width="40" height="30" as="geometry" />
        </mxCell>
        <mxCell id="BQkQv98dp7C7x2xebXow-60" value="SI" style="text;html=1;align=center;verticalAlign=middle;resizable=0;points=[];autosize=1;strokeColor=none;fillColor=none;" parent="1" vertex="1">
          <mxGeometry x="415.5" y="1318" width="30" height="30" as="geometry" />
        </mxCell>
        <mxCell id="BQkQv98dp7C7x2xebXow-61" value="" style="edgeStyle=orthogonalEdgeStyle;rounded=0;orthogonalLoop=1;jettySize=auto;html=1;entryX=0;entryY=0.5;entryDx=0;entryDy=0;" parent="1" source="BQkQv98dp7C7x2xebXow-62" target="BQkQv98dp7C7x2xebXow-64" edge="1">
          <mxGeometry relative="1" as="geometry" />
        </mxCell>
        <mxCell id="BQkQv98dp7C7x2xebXow-62" value="&lt;div&gt;hours1 = 7-debut&lt;/div&gt;&lt;div&gt;&lt;span style=&quot;background-color: initial;&quot;&gt;tarifa1 = hours1 * 1&lt;/span&gt;&lt;/div&gt;&lt;div&gt;&lt;span style=&quot;background-color: initial;&quot;&gt;hours2 = (fin-debut) - hours1&lt;/span&gt;&lt;/div&gt;&lt;div&gt;&lt;span style=&quot;background-color: initial;&quot;&gt;tarifa2 = hours2 * 2&lt;/span&gt;&lt;/div&gt;" style="whiteSpace=wrap;html=1;" parent="1" vertex="1">
          <mxGeometry x="455.5" y="1330.5" width="165" height="60" as="geometry" />
        </mxCell>
        <mxCell id="BQkQv98dp7C7x2xebXow-63" value="" style="edgeStyle=orthogonalEdgeStyle;rounded=0;orthogonalLoop=1;jettySize=auto;html=1;" parent="1" source="BQkQv98dp7C7x2xebXow-64" target="BQkQv98dp7C7x2xebXow-98" edge="1">
          <mxGeometry relative="1" as="geometry" />
        </mxCell>
        <mxCell id="BQkQv98dp7C7x2xebXow-64" value="&lt;div&gt;&lt;div&gt;Haz alquilado una bicicleta por&lt;/div&gt;&lt;div&gt;&lt;span style=&quot;background-color: initial;&quot;&gt;[hours1] hora(s) con el tarifario de 1 boliviano(s)&lt;/span&gt;&lt;/div&gt;&lt;div&gt;&lt;span style=&quot;background-color: initial;&quot;&gt;[hours2] hora(s) con el tarifario de 2 boliviano(s)&lt;/span&gt;&lt;/div&gt;&lt;div&gt;&lt;span style=&quot;background-color: initial;&quot;&gt;El monto total a pagar es de [tarifa1 + tarifa2] boliviano(s).&lt;/span&gt;&lt;/div&gt;&lt;/div&gt;" style="shape=parallelogram;perimeter=parallelogramPerimeter;whiteSpace=wrap;html=1;fixedSize=1;" parent="1" vertex="1">
          <mxGeometry x="627.5" y="1320.75" width="380" height="79.5" as="geometry" />
        </mxCell>
        <mxCell id="BQkQv98dp7C7x2xebXow-65" value="" style="edgeStyle=orthogonalEdgeStyle;rounded=0;orthogonalLoop=1;jettySize=auto;html=1;" parent="1" source="BQkQv98dp7C7x2xebXow-67" target="BQkQv98dp7C7x2xebXow-70" edge="1">
          <mxGeometry relative="1" as="geometry" />
        </mxCell>
        <mxCell id="BQkQv98dp7C7x2xebXow-66" value="" style="edgeStyle=orthogonalEdgeStyle;rounded=0;orthogonalLoop=1;jettySize=auto;html=1;" parent="1" source="BQkQv98dp7C7x2xebXow-67" target="BQkQv98dp7C7x2xebXow-76" edge="1">
          <mxGeometry relative="1" as="geometry" />
        </mxCell>
        <mxCell id="BQkQv98dp7C7x2xebXow-67" value="debut &amp;lt;= 7 and fin &amp;gt;= 17&amp;nbsp;&lt;div&gt;and fin &amp;lt;= 24&lt;/div&gt;" style="rhombus;whiteSpace=wrap;html=1;" parent="1" vertex="1">
          <mxGeometry x="243" y="1460" width="192.5" height="89" as="geometry" />
        </mxCell>
        <mxCell id="BQkQv98dp7C7x2xebXow-68" value="NO" style="text;html=1;align=center;verticalAlign=middle;resizable=0;points=[];autosize=1;strokeColor=none;fillColor=none;" parent="1" vertex="1">
          <mxGeometry x="340.5" y="1418" width="40" height="30" as="geometry" />
        </mxCell>
        <mxCell id="BQkQv98dp7C7x2xebXow-69" value="" style="edgeStyle=orthogonalEdgeStyle;rounded=0;orthogonalLoop=1;jettySize=auto;html=1;" parent="1" source="BQkQv98dp7C7x2xebXow-70" target="BQkQv98dp7C7x2xebXow-73" edge="1">
          <mxGeometry relative="1" as="geometry" />
        </mxCell>
        <mxCell id="BQkQv98dp7C7x2xebXow-70" value="&lt;div&gt;&lt;span style=&quot;background-color: initial;&quot;&gt;tarifa1 = (7-debut) * 1&lt;/span&gt;&lt;br&gt;&lt;/div&gt;&lt;div&gt;&lt;span style=&quot;background-color: initial;&quot;&gt;tarifa2 = (fin-17) * 1&lt;/span&gt;&lt;/div&gt;&lt;div&gt;&lt;span style=&quot;background-color: initial;&quot;&gt;hours1 = (7-debut) + (fin-17)&lt;/span&gt;&lt;/div&gt;&lt;div&gt;&lt;span style=&quot;background-color: initial;&quot;&gt;hours2 = (fin - debut) - hours1&lt;/span&gt;&lt;/div&gt;&lt;div&gt;&lt;span style=&quot;background-color: initial;&quot;&gt;tarifa3 = hours2 * 2&lt;/span&gt;&lt;/div&gt;" style="whiteSpace=wrap;html=1;" parent="1" vertex="1">
          <mxGeometry x="460.5" y="1456.75" width="190" height="95.5" as="geometry" />
        </mxCell>
        <mxCell id="BQkQv98dp7C7x2xebXow-71" value="SI" style="text;html=1;align=center;verticalAlign=middle;resizable=0;points=[];autosize=1;strokeColor=none;fillColor=none;" parent="1" vertex="1">
          <mxGeometry x="425.5" y="1468" width="30" height="30" as="geometry" />
        </mxCell>
        <mxCell id="BQkQv98dp7C7x2xebXow-72" value="" style="edgeStyle=orthogonalEdgeStyle;rounded=0;orthogonalLoop=1;jettySize=auto;html=1;" parent="1" source="BQkQv98dp7C7x2xebXow-73" target="BQkQv98dp7C7x2xebXow-99" edge="1">
          <mxGeometry relative="1" as="geometry" />
        </mxCell>
        <mxCell id="BQkQv98dp7C7x2xebXow-73" value="&lt;div&gt;&lt;div&gt;Haz alquilado una bicicleta por&lt;/div&gt;&lt;div&gt;&lt;span style=&quot;background-color: initial;&quot;&gt;[hours1] hora(s) con el tarifario de 1 boliviano(s)&lt;/span&gt;&lt;/div&gt;&lt;div&gt;&lt;span style=&quot;background-color: initial;&quot;&gt;[hours2] hora(s) con el tarifario de 2 boliviano(s)&lt;/span&gt;&lt;/div&gt;&lt;div&gt;El monto total a pagar es de [tarifa1 + tarifa2 + tarifa3]&lt;/div&gt;&lt;div&gt;&amp;nbsp;boliviano(s).&lt;/div&gt;&lt;/div&gt;" style="shape=parallelogram;perimeter=parallelogramPerimeter;whiteSpace=wrap;html=1;fixedSize=1;" parent="1" vertex="1">
          <mxGeometry x="660.5" y="1456.75" width="370" height="95.5" as="geometry" />
        </mxCell>
        <mxCell id="BQkQv98dp7C7x2xebXow-74" value="" style="edgeStyle=orthogonalEdgeStyle;rounded=0;orthogonalLoop=1;jettySize=auto;html=1;" parent="1" source="BQkQv98dp7C7x2xebXow-76" target="BQkQv98dp7C7x2xebXow-81" edge="1">
          <mxGeometry relative="1" as="geometry" />
        </mxCell>
        <mxCell id="BQkQv98dp7C7x2xebXow-75" value="" style="edgeStyle=orthogonalEdgeStyle;rounded=0;orthogonalLoop=1;jettySize=auto;html=1;" parent="1" source="BQkQv98dp7C7x2xebXow-76" target="BQkQv98dp7C7x2xebXow-86" edge="1">
          <mxGeometry relative="1" as="geometry" />
        </mxCell>
        <mxCell id="BQkQv98dp7C7x2xebXow-76" value="debut &amp;lt;= 17&amp;nbsp;&lt;div&gt;and debut &amp;gt;= 7&amp;nbsp;&lt;span style=&quot;background-color: initial;&quot;&gt;and fin &amp;gt;= 17&amp;nbsp;&lt;/span&gt;&lt;div&gt;and fin &amp;lt;= 24&lt;br&gt;&lt;/div&gt;&lt;/div&gt;" style="rhombus;whiteSpace=wrap;html=1;" parent="1" vertex="1">
          <mxGeometry x="243" y="1629" width="192.5" height="89" as="geometry" />
        </mxCell>
        <mxCell id="BQkQv98dp7C7x2xebXow-77" value="NO" style="text;html=1;align=center;verticalAlign=middle;resizable=0;points=[];autosize=1;strokeColor=none;fillColor=none;" parent="1" vertex="1">
          <mxGeometry x="340.5" y="1538" width="40" height="30" as="geometry" />
        </mxCell>
        <mxCell id="BQkQv98dp7C7x2xebXow-78" value="SI" style="text;html=1;align=center;verticalAlign=middle;resizable=0;points=[];autosize=1;strokeColor=none;fillColor=none;" parent="1" vertex="1">
          <mxGeometry x="428" y="1640" width="30" height="30" as="geometry" />
        </mxCell>
        <mxCell id="BQkQv98dp7C7x2xebXow-79" value="NO" style="text;html=1;align=center;verticalAlign=middle;resizable=0;points=[];autosize=1;strokeColor=none;fillColor=none;" parent="1" vertex="1">
          <mxGeometry x="346.13" y="1713.5100000000002" width="40" height="30" as="geometry" />
        </mxCell>
        <mxCell id="BQkQv98dp7C7x2xebXow-80" value="" style="edgeStyle=orthogonalEdgeStyle;rounded=0;orthogonalLoop=1;jettySize=auto;html=1;entryX=0;entryY=0.5;entryDx=0;entryDy=0;" parent="1" source="BQkQv98dp7C7x2xebXow-81" target="BQkQv98dp7C7x2xebXow-83" edge="1">
          <mxGeometry relative="1" as="geometry" />
        </mxCell>
        <mxCell id="BQkQv98dp7C7x2xebXow-81" value="&lt;div&gt;hours1 = 17-debut&lt;/div&gt;&lt;div&gt;&lt;span style=&quot;background-color: initial;&quot;&gt;tarifa1 = (17-debut) * 2&lt;/span&gt;&lt;/div&gt;&lt;div&gt;&lt;span style=&quot;background-color: initial;&quot;&gt;hours2 = (fin-debut) - (17-debut)&lt;/span&gt;&lt;/div&gt;&lt;div&gt;&lt;span style=&quot;background-color: initial;&quot;&gt;tarifa2 = hours2 * 1&lt;/span&gt;&lt;/div&gt;" style="whiteSpace=wrap;html=1;" parent="1" vertex="1">
          <mxGeometry x="458" y="1640.25" width="182.5" height="66.5" as="geometry" />
        </mxCell>
        <mxCell id="BQkQv98dp7C7x2xebXow-82" value="" style="edgeStyle=orthogonalEdgeStyle;rounded=0;orthogonalLoop=1;jettySize=auto;html=1;" parent="1" source="BQkQv98dp7C7x2xebXow-83" target="BQkQv98dp7C7x2xebXow-100" edge="1">
          <mxGeometry relative="1" as="geometry" />
        </mxCell>
        <mxCell id="BQkQv98dp7C7x2xebXow-83" value="&lt;div&gt;&lt;span style=&quot;background-color: initial;&quot;&gt;Haz alquilado una bicicleta por&lt;/span&gt;&lt;br&gt;&lt;/div&gt;&lt;div&gt;&lt;span style=&quot;background-color: initial;&quot;&gt;[hours2] hora(s) con el tarifario de 1 boliviano(s)&lt;/span&gt;&lt;/div&gt;&lt;div&gt;&lt;span style=&quot;background-color: initial;&quot;&gt;[hours1] hora(s) con el tarifario de 2 boliviano(s)&lt;/span&gt;&lt;/div&gt;&lt;div&gt;&lt;span style=&quot;background-color: initial;&quot;&gt;El monto total a pagar es de [tarifa1 + tarifa2] boliviano(s).&lt;/span&gt;&lt;/div&gt;" style="shape=parallelogram;perimeter=parallelogramPerimeter;whiteSpace=wrap;html=1;fixedSize=1;" parent="1" vertex="1">
          <mxGeometry x="654.5" y="1623.63" width="376" height="99.75" as="geometry" />
        </mxCell>
        <mxCell id="BQkQv98dp7C7x2xebXow-84" value="" style="edgeStyle=orthogonalEdgeStyle;rounded=0;orthogonalLoop=1;jettySize=auto;html=1;" parent="1" source="BQkQv98dp7C7x2xebXow-85" target="BQkQv98dp7C7x2xebXow-94" edge="1">
          <mxGeometry relative="1" as="geometry" />
        </mxCell>
        <mxCell id="BQkQv98dp7C7x2xebXow-85" value="debut &amp;gt;=0 and debut &amp;lt;= 24&amp;nbsp;&lt;div&gt;and fin &amp;gt;=0 and fin &amp;lt;=24&lt;/div&gt;" style="rhombus;whiteSpace=wrap;html=1;" parent="1" vertex="1">
          <mxGeometry x="240" y="700" width="200" height="110" as="geometry" />
        </mxCell>
        <mxCell id="BQkQv98dp7C7x2xebXow-86" value="FIN" style="rounded=1;whiteSpace=wrap;html=1;" parent="1" vertex="1">
          <mxGeometry x="292.38" y="1753.38" width="93.75" height="37.5" as="geometry" />
        </mxCell>
        <mxCell id="BQkQv98dp7C7x2xebXow-87" value="" style="edgeStyle=orthogonalEdgeStyle;rounded=0;orthogonalLoop=1;jettySize=auto;html=1;" parent="1" source="BQkQv98dp7C7x2xebXow-88" target="BQkQv98dp7C7x2xebXow-5" edge="1">
          <mxGeometry relative="1" as="geometry" />
        </mxCell>
        <mxCell id="BQkQv98dp7C7x2xebXow-88" value="fin" style="shape=parallelogram;perimeter=parallelogramPerimeter;whiteSpace=wrap;html=1;fixedSize=1;" parent="1" vertex="1">
          <mxGeometry x="304.26" y="180" width="70" height="20" as="geometry" />
        </mxCell>
        <mxCell id="BQkQv98dp7C7x2xebXow-89" value="" style="edgeStyle=orthogonalEdgeStyle;rounded=0;orthogonalLoop=1;jettySize=auto;html=1;" parent="1" source="BQkQv98dp7C7x2xebXow-90" target="BQkQv98dp7C7x2xebXow-3" edge="1">
          <mxGeometry relative="1" as="geometry" />
        </mxCell>
        <mxCell id="BQkQv98dp7C7x2xebXow-90" value="INICIO" style="rounded=1;whiteSpace=wrap;html=1;" parent="1" vertex="1">
          <mxGeometry x="300.5" y="40" width="80" height="40" as="geometry" />
        </mxCell>
        <mxCell id="BQkQv98dp7C7x2xebXow-91" value="FIN" style="rounded=1;whiteSpace=wrap;html=1;" parent="1" vertex="1">
          <mxGeometry x="710.5" y="330" width="82.5" height="40" as="geometry" />
        </mxCell>
        <mxCell id="BQkQv98dp7C7x2xebXow-92" value="FIN" style="rounded=1;whiteSpace=wrap;html=1;" parent="1" vertex="1">
          <mxGeometry x="710.5" y="457.5" width="82.5" height="35" as="geometry" />
        </mxCell>
        <mxCell id="BQkQv98dp7C7x2xebXow-93" value="FIN" style="rounded=1;whiteSpace=wrap;html=1;" parent="1" vertex="1">
          <mxGeometry x="706.75" y="610" width="86.25" height="40" as="geometry" />
        </mxCell>
        <mxCell id="BQkQv98dp7C7x2xebXow-94" value="FIN" style="rounded=1;whiteSpace=wrap;html=1;" parent="1" vertex="1">
          <mxGeometry x="554.5" y="737.5" width="73" height="35" as="geometry" />
        </mxCell>
        <mxCell id="BQkQv98dp7C7x2xebXow-95" value="FIN" style="rounded=1;whiteSpace=wrap;html=1;" parent="1" vertex="1">
          <mxGeometry x="1030.5" y="877.5" width="67.5" height="35" as="geometry" />
        </mxCell>
        <mxCell id="BQkQv98dp7C7x2xebXow-96" value="FIN" style="rounded=1;whiteSpace=wrap;html=1;" parent="1" vertex="1">
          <mxGeometry x="1030.5" y="1025" width="67.5" height="30" as="geometry" />
        </mxCell>
        <mxCell id="BQkQv98dp7C7x2xebXow-97" value="FIN" style="rounded=1;whiteSpace=wrap;html=1;" parent="1" vertex="1">
          <mxGeometry x="1030.49" y="1186" width="67.51" height="36" as="geometry" />
        </mxCell>
        <mxCell id="BQkQv98dp7C7x2xebXow-98" value="FIN" style="rounded=1;whiteSpace=wrap;html=1;" parent="1" vertex="1">
          <mxGeometry x="1030.5" y="1340.75" width="74.5" height="39.5" as="geometry" />
        </mxCell>
        <mxCell id="BQkQv98dp7C7x2xebXow-99" value="FIN" style="rounded=1;whiteSpace=wrap;html=1;" parent="1" vertex="1">
          <mxGeometry x="1063" y="1486.75" width="72.5" height="35.5" as="geometry" />
        </mxCell>
        <mxCell id="BQkQv98dp7C7x2xebXow-100" value="FIN" style="rounded=1;whiteSpace=wrap;html=1;" parent="1" vertex="1">
          <mxGeometry x="1113" y="1655.25" width="75.5" height="36.49" as="geometry" />
        </mxCell>
      </root>
    </mxGraphModel>
  </diagram>
</mxfile>
